<?xml version="1.0" encoding="UTF-8"?>
<svg xmlns="http://www.w3.org/2000/svg" width="400" height="400" viewBox="0 0 400 400">
  <defs>
    <linearGradient id="bg" x1="0" x2="1" y1="0" y2="1">
      <stop stop-color="#f8fafc" offset="0"/>
      <stop stop-color="#e2e8f0" offset="1"/>
    </linearGradient>
  </defs>
  <rect width="400" height="400" fill="url(#bg)"/>
  <rect x="60" y="120" width="280" height="160" rx="16" fill="#fafafa"/>
  <rect x="70" y="130" width="260" height="140" rx="12" fill="#1a1a1a"/>
  <rect x="85" y="145" width="60" height="110" rx="8" fill="#e2e8f0"/>
  <circle cx="115" cy="170" r="12" fill="#1a1a1a"/>
  <circle cx="115" cy="205" r="8" fill="#1a1a1a"/>
  <rect x="255" y="145" width="60" height="110" rx="8" fill="#e2e8f0"/>
  <circle cx="285" cy="170" r="12" fill="#1a1a1a"/>
  <circle cx="285" cy="205" r="8" fill="#1a1a1a"/>
  <rect x="155" y="170" width="90" height="60" rx="8" fill="#1a1a1a"/>
  <rect x="162" y="180" width="76" height="40" rx="4" fill="#0ea5e9"/>
  <circle cx="290" cy="360" r="35" fill="#1a1a1a"/>
  <circle cx="290" cy="360" r="25" fill="#0a0a0a"/>
  <circle cx="290" cy="360" r="10" fill="#0ea5e9"/>
  <text x="200" y="330" text-anchor="middle" font-family="system-ui, -apple-system, sans-serif" font-size="16" font-weight="600" fill="#1e293b">Nintendo Switch</text>
  <text x="200" y="350" text-anchor="middle" font-family="system-ui, -apple-system, sans-serif" font-size="12" fill="#64748b">OLED Model</text>
</svg>